# xmcd
#
# Track frame offsets:
#	150
#	13592
#	28427
#	41870
#	54872
#	69070
#	81265
#	96342
#	107530
#	123255
#	131707
#	142385
#
# Disc length: 2055 seconds
#
# Revision: 1
# Processed by: cddbd v1.5.1PL0 Copyright (c) Steve Scherf et al.
# Submitted via: audiograbber 1.83.01
#
DISCID=a808050c
DTITLE=Bob Collum - More Tragic Songs Of Life
DYEAR=1998
DGENRE=Country
TTITLE0=Little Johnny Shotgun
TTITLE1=Across A Crowded Room
TTITLE2=Prozac Yodel #9
TTITLE3=Theoretical Girlfriend
TTITLE4=Factory Song
TTITLE5=The One
TTITLE6=Hurt For All Seasons
TTITLE7=Bad Day For Love
TTITLE8=Long Way Out
TTITLE9=Nowhere Ville
TTITLE10=Writing On The Wall
TTITLE11=Midnight Shift
EXTD=
EXTT0=
EXTT1=
EXTT2=
EXTT3=
EXTT4=
EXTT5=
EXTT6=
EXTT7=
EXTT8=
EXTT9=
EXTT10=
EXTT11=
PLAYORDER=
